<svg width="93" height="96" xmlns="http://www.w3.org/2000/svg" xmlns:xlink="http://www.w3.org/1999/xlink" xml:space="preserve" overflow="hidden"><g><path d="M80.0033 13.0035C74.4708 7.47961 65.5665 7.30141 59.8174 12.5996L12.5647 59.8048C7.11828 65.737 7.51207 74.9612 13.4442 80.4076 19.0274 85.5336 27.6067 85.5275 33.1826 80.3937L80.4353 33.1884C85.7262 27.4324 85.5356 18.5278 80.0033 13.0035ZM37.3598 47.3816C36.6006 48.141 35.3695 48.1411 34.6102 47.3819 33.8508 46.6226 33.8507 45.3917 34.6099 44.6322 35.3691 43.8728 36.6002 43.8727 37.3596 44.632 37.3596 44.6321 37.3597 44.6322 37.3598 44.6322 38.1191 45.3909 38.1195 46.6213 37.3609 47.3805 37.3605 47.3809 37.3602 47.3812 37.3598 47.3816ZM42.8585 52.8812C42.0993 53.6406 40.8682 53.6407 40.1089 52.8814 39.3495 52.1222 39.3494 50.8912 40.1085 50.1318 40.8677 49.3724 42.0988 49.3723 42.8582 50.1316 42.8583 50.1316 42.8584 50.1317 42.8585 50.1318 43.6177 50.8905 43.6182 52.1209 42.8595 52.8801 42.8591 52.8805 42.8589 52.8808 42.8585 52.8812ZM42.8585 41.8829C42.0993 42.6423 40.8682 42.6424 40.1089 41.8832 39.3495 41.124 39.3494 39.893 40.1085 39.1336 40.8677 38.3742 42.0988 38.3741 42.8582 39.1333 42.8583 39.1334 42.8584 39.1335 42.8585 39.1336 43.6177 39.8923 43.6182 41.1227 42.8595 41.8819 42.8591 41.8823 42.8589 41.8825 42.8585 41.8829ZM48.3571 58.3798C47.5979 59.1392 46.3668 59.1393 45.6075 58.3801 44.8481 57.6209 44.848 56.3899 45.6071 55.6305 46.3663 54.8711 47.5974 54.871 48.3568 55.6302 48.3569 55.6303 48.357 55.6304 48.3571 55.6305 49.1163 56.3891 49.1168 57.6195 48.3582 58.3787 48.3578 58.3791 48.3575 58.3794 48.3571 58.3798ZM48.3571 47.3816C47.5979 48.141 46.3668 48.1411 45.6075 47.3819 44.8481 46.6226 44.848 45.3917 45.6071 44.6322 46.3663 43.8728 47.5974 43.8727 48.3568 44.632 48.3569 44.6321 48.357 44.6322 48.3571 44.6322 49.1163 45.3909 49.1168 46.6213 48.3582 47.3805 48.3578 47.3809 48.3575 47.3812 48.3571 47.3816ZM48.3571 36.3843C47.5979 37.1437 46.3668 37.1438 45.6075 36.3846 44.8481 35.6254 44.848 34.3944 45.6071 33.635 46.3663 32.8756 47.5974 32.8755 48.3568 33.6347 48.3569 33.6348 48.357 33.6349 48.3571 33.635 49.1163 34.3936 49.1168 35.624 48.3582 36.3832 48.3578 36.3836 48.3575 36.3839 48.3571 36.3843ZM53.8567 52.8812C53.0975 53.6406 51.8664 53.6407 51.1071 52.8814 50.3477 52.1222 50.3476 50.8912 51.1067 50.1318 51.8659 49.3724 53.097 49.3723 53.8564 50.1316 53.8565 50.1316 53.8566 50.1317 53.8567 50.1318 54.6159 50.8905 54.6164 52.1209 53.8578 52.8801 53.8574 52.8805 53.8571 52.8808 53.8567 52.8812ZM53.8567 41.8829C53.0975 42.6423 51.8664 42.6424 51.1071 41.8832 50.3477 41.124 50.3476 39.893 51.1067 39.1336 51.8659 38.3742 53.097 38.3741 53.8564 39.1333 53.8565 39.1334 53.8566 39.1335 53.8567 39.1336 54.6159 39.8923 54.6164 41.1227 53.8578 41.8819 53.8574 41.8823 53.8571 41.8825 53.8567 41.8829ZM59.3553 47.3816C58.5961 48.141 57.365 48.1411 56.6057 47.3819 55.8463 46.6226 55.8462 45.3917 56.6053 44.6322 57.3645 43.8728 58.5956 43.8727 59.355 44.632 59.3551 44.6321 59.3552 44.6322 59.3553 44.6322 60.1145 45.3909 60.115 46.6213 59.3564 47.3805 59.356 47.3809 59.3557 47.3812 59.3553 47.3816Z" transform="matrix(-1 0 0 1.03226 93 0)"/></g></svg>